<?xml version="1.0" standalone="no"?>
<!DOCTYPE svg PUBLIC "-//W3C//DTD SVG 20010904//EN"
        "http://www.w3.org/TR/2001/REC-SVG-20010904/DTD/svg10.dtd">
<svg version="1.0" xmlns="http://www.w3.org/2000/svg"
     width="140.000000pt" height="128.000000pt" viewBox="0 0 140.000000 128.000000"
     preserveAspectRatio="xMidYMid meet">

    <g transform="translate(0.000000,128.000000) scale(0.100000,-0.100000)"
       fill="#C61D2A" stroke="none">
        <path d="M645 1190 c-15 -7 -10 -8 19 -5 21 2 41 6 44 9 9 9 -41 6 -63 -4z"/>
        <path d="M504 1145 c-3 -13 -4 -30 -1 -37 3 -7 6 -2 6 13 1 14 6 30 13 37 9 9
9 12 0 12 -6 0 -14 -11 -18 -25z"/>
        <path d="M672 1140 c0 -14 2 -19 5 -12 2 6 2 18 0 25 -3 6 -5 1 -5 -13z"/>
        <path d="M661 1100 c-1 -8 -4 -26 -7 -40 -5 -22 -4 -23 6 -7 6 10 9 28 7 40
-2 12 -5 15 -6 7z"/>
        <path d="M490 1062 c0 -35 9 -62 20 -62 8 0 -6 80 -16 89 -2 2 -4 -10 -4 -27z"/>
        <path d="M726 1073 c-3 -10 -9 -25 -13 -33 -5 -13 -4 -13 9 -2 18 14 31 52 18
52 -4 0 -10 -8 -14 -17z"/>
        <path d="M784 1052 c-2 -37 -2 -37 8 -9 6 16 6 33 2 37 -5 5 -10 -7 -10 -28z"/>
        <path d="M1020 1035 c-26 -26 -37 -31 -48 -23 -11 9 -11 13 0 21 10 6 8 7 -4
3 -10 -3 -20 -1 -23 4 -4 6 -12 10 -18 10 -7 0 -6 -4 3 -10 17 -10 16 -12 -28
-34 -19 -10 -32 -20 -29 -22 2 -3 21 5 41 17 30 17 39 19 51 9 14 -12 14 -15
0 -30 -8 -9 -15 -21 -15 -26 0 -6 27 16 60 48 33 32 60 61 60 63 0 11 -17 1
-50 -30z"/>
        <path d="M440 1021 c0 -17 4 -32 8 -35 4 -2 6 11 4 30 -5 42 -12 45 -12 5z"/>
        <path d="M615 1021 c-3 -6 10 -7 32 -4 50 8 55 13 10 13 -20 0 -38 -4 -42 -9z"/>
        <path d="M377 1013 c-11 -11 -8 -58 5 -71 20 -20 32 -13 13 8 -11 12 -16 29
-13 45 6 27 5 29 -5 18z"/>
        <path d="M307 943 c-4 -3 -7 -11 -7 -17 0 -6 5 -4 10 4 9 13 13 11 30 -10 l21
-25 -12 28 c-12 26 -28 34 -42 20z"/>
        <path d="M280 903 c0 -5 7 -18 15 -29 12 -16 14 -16 15 -3 0 9 -7 22 -15 29
-8 7 -15 8 -15 3z"/>
        <path d="M1180 900 c-23 -7 -23 -8 -3 -9 12 -1 25 4 28 9 3 6 5 10 3 9 -2 -1
-14 -5 -28 -9z"/>
        <path d="M1081 879 c-18 -6 -31 -12 -28 -15 3 -3 27 1 53 10 53 16 30 20 -25
5z"/>
        <path d="M548 797 l-128 -72 3 -154 2 -153 90 -52 c50 -29 108 -62 130 -75
l41 -22 129 74 130 75 3 153 2 154 -128 73 c-70 39 -132 72 -138 72 -5 0 -66
-33 -136 -73z m212 -122 c11 -13 10 -22 -3 -50 -9 -19 -22 -35 -28 -35 -6 0
-9 3 -7 8 2 4 10 19 18 35 20 40 1 54 -35 26 -35 -29 -65 -93 -65 -144 0 -72
36 -84 97 -33 l38 32 -34 -37 c-39 -41 -81 -49 -113 -20 -43 38 -6 166 61 210
40 27 54 28 71 8z"/>
        <path d="M246 845 c4 -9 16 -21 28 -27 19 -10 19 -9 -3 16 -28 30 -33 32 -25
11z"/>
        <path d="M1030 853 c0 -17 68 -73 89 -73 10 0 25 8 32 18 13 15 12 16 -3 4
-23 -18 -55 -7 -90 31 -15 17 -28 26 -28 20z"/>
        <path d="M1220 852 c0 -7 -12 -13 -27 -13 -26 -2 -26 -2 -4 -6 24 -5 50 11 38
24 -4 3 -7 1 -7 -5z"/>
        <path d="M225 800 c10 -11 22 -20 27 -20 4 0 -1 9 -12 20 -11 11 -23 20 -27
20 -3 0 2 -9 12 -20z"/>
        <path d="M1113 745 c-3 -9 -3 -19 1 -22 3 -4 6 1 6 10 0 8 10 18 23 20 l22 4
-23 2 c-12 0 -25 -6 -29 -14z"/>
        <path d="M1145 719 c-4 -6 -5 -12 -2 -15 2 -3 7 2 10 11 7 17 1 20 -8 4z"/>
        <path d="M200 705 c7 -8 20 -15 28 -15 13 0 12 3 -4 15 -25 19 -40 19 -24 0z"/>
        <path d="M91 707 c2 -1 13 -9 24 -17 19 -14 19 -14 6 3 -7 9 -18 17 -24 17 -6
0 -8 -1 -6 -3z"/>
        <path d="M80 651 c27 -52 123 -80 151 -43 13 15 12 16 -4 3 -24 -19 -74 -7
-120 31 -33 25 -37 27 -27 9z"/>
        <path d="M1195 640 c-4 -6 -13 -9 -20 -6 -8 3 -19 -1 -25 -9 -10 -12 -7 -13
21 -5 35 10 45 17 37 26 -3 3 -9 0 -13 -6z"/>
        <path d="M381 200 c14 -31 19 -36 19 -24 0 6 -7 19 -16 30 -14 18 -14 18 -3
-6z"/>
        <path d="M489 203 c-13 -16 -12 -17 4 -4 9 7 17 15 17 17 0 8 -8 3 -21 -13z"/>
        <path d="M854 205 c3 -21 16 -31 16 -12 0 9 -4 18 -9 21 -5 4 -8 -1 -7 -9z"/>
        <path d="M871 143 c-1 -17 4 -35 9 -38 11 -7 11 9 0 45 -8 24 -8 24 -9 -7z"/>
        <path d="M405 139 c-4 -6 -5 -12 -2 -15 2 -3 7 2 10 11 7 17 1 20 -8 4z"/>
        <path d="M1011 134 c0 -11 3 -14 6 -6 3 7 2 16 -1 19 -3 4 -6 -2 -5 -13z"/>
        <path d="M311 124 c0 -11 3 -14 6 -6 3 7 2 16 -1 19 -3 4 -6 -2 -5 -13z"/>
        <path d="M531 124 c0 -11 3 -14 6 -6 3 7 2 16 -1 19 -3 4 -6 -2 -5 -13z"/>
        <path d="M597 125 c-4 -8 -3 -16 1 -19 4 -3 9 4 9 15 2 23 -3 25 -10 4z"/>
        <path d="M711 124 c0 -11 3 -14 6 -6 3 7 2 16 -1 19 -3 4 -6 -2 -5 -13z"/>
        <path d="M450 121 c0 -6 4 -13 10 -16 6 -3 7 1 4 9 -7 18 -14 21 -14 7z"/>
        <path d="M671 114 c0 -11 3 -14 6 -6 3 7 2 16 -1 19 -3 4 -6 -2 -5 -13z"/>
        <path d="M741 123 c-1 -6 -4 -20 -7 -30 -5 -17 -5 -17 6 0 6 10 9 23 6 30 -3
9 -5 9 -5 0z"/>
    </g>
</svg>
