<?xml version="1.0" standalone="no"?>
<!DOCTYPE svg PUBLIC "-//W3C//DTD SVG 20010904//EN"
        "http://www.w3.org/TR/2001/REC-SVG-20010904/DTD/svg10.dtd">
<svg version="1.0" xmlns="http://www.w3.org/2000/svg"
     width="252.000000pt" height="77.000000pt" viewBox="0 0 252.000000 77.000000"
     preserveAspectRatio="xMidYMid meet">

    <g transform="translate(0.000000,77.000000) scale(0.100000,-0.100000)"
       fill="#C61D2A" stroke="none">
        <path d="M1418 643 c12 -2 32 -2 45 0 12 2 2 4 -23 4 -25 0 -35 -2 -22 -4z"/>
        <path d="M1296 624 c-9 -24 -2 -26 12 -4 7 11 8 20 3 20 -5 0 -12 -7 -15 -16z"/>
        <path d="M1431 604 c0 -11 3 -14 6 -6 3 7 2 16 -1 19 -3 4 -6 -2 -5 -13z"/>
        <path d="M342 539 l-122 -70 0 -139 0 -138 114 -66 c63 -36 119 -67 124 -68 5
-2 64 28 131 66 l121 68 0 138 0 138 -117 67 c-65 37 -121 69 -124 71 -3 2
-60 -28 -127 -67z m194 -114 c7 -18 -14 -75 -28 -75 -6 0 -7 8 -3 18 4 9 10
28 13 41 4 20 2 22 -14 13 -29 -15 -51 -43 -69 -85 -39 -93 2 -148 71 -95 l29
22 -24 -27 c-27 -29 -80 -37 -99 -14 -31 39 -20 114 25 167 39 46 88 64 99 35z"/>
        <path d="M1727 552 c-28 -61 -34 -92 -16 -92 5 0 7 5 4 10 -5 8 14 56 53 133
2 4 0 7 -5 7 -4 0 -20 -26 -36 -58z"/>
        <path d="M1416 549 c-8 -42 0 -50 9 -9 4 17 5 34 2 36 -2 3 -7 -10 -11 -27z"/>
        <path d="M1695 560 c-3 -5 -16 -10 -28 -10 -15 0 -18 -3 -9 -9 10 -6 10 -10
-3 -21 -9 -7 -21 -23 -26 -34 -6 -12 2 -7 18 12 15 18 34 32 42 32 8 0 11 3 8
7 -4 3 -2 12 4 20 6 7 9 13 6 13 -3 0 -9 -4 -12 -10z"/>
        <path d="M1267 533 c-5 -28 0 -53 12 -53 4 0 5 18 3 40 -5 47 -8 50 -15 13z"/>
        <path d="M1866 504 c-27 -30 -46 -57 -43 -60 3 -3 26 22 52 55 25 34 45 61 42
61 -2 0 -25 -25 -51 -56z"/>
        <path d="M1216 528 c-8 -31 -7 -48 2 -48 4 0 8 16 9 35 2 40 -2 45 -11 13z"/>
        <path d="M1472 525 c-6 -14 -7 -25 -2 -25 9 0 25 39 18 46 -3 2 -10 -7 -16
-21z"/>
        <path d="M1530 518 c0 -36 4 -35 14 5 4 16 2 27 -4 27 -5 0 -10 -14 -10 -32z"/>
        <path d="M1150 521 c-12 -24 -13 -48 -1 -55 5 -4 7 3 4 13 -3 10 0 28 6 40 7
12 9 21 7 21 -3 0 -10 -9 -16 -19z"/>
        <path d="M1951 507 c-13 -21 -12 -21 5 -5 10 10 16 20 13 22 -3 3 -11 -5 -18
-17z"/>
        <path d="M1075 500 c-3 -6 -1 -9 7 -8 7 2 14 -7 16 -19 2 -13 7 -23 12 -23 12
0 -4 53 -17 57 -6 2 -14 -1 -18 -7z"/>
        <path d="M1385 489 c-15 -6 -11 -8 18 -8 20 -1 37 1 37 3 0 9 -37 12 -55 5z"/>
        <path d="M819 458 c4 -28 6 -29 9 -9 2 13 0 27 -5 32 -6 6 -7 -3 -4 -23z"/>
        <path d="M1041 460 c0 -29 1 -32 10 -17 7 11 7 23 0 35 -9 14 -10 11 -10 -18z"/>
        <path d="M776 464 c-3 -9 -6 -35 -6 -58 0 -46 29 -96 56 -96 10 0 5 9 -13 24
-25 22 -28 31 -28 85 0 34 -1 61 -1 61 -1 0 -5 -7 -8 -16z"/>
        <path d="M990 451 c0 -11 4 -22 9 -25 4 -3 6 6 3 19 -5 30 -12 33 -12 6z"/>
        <path d="M953 436 c1 -16 9 -32 17 -34 12 -4 13 -2 4 9 -7 8 -14 23 -17 34 -4
13 -5 9 -4 -9z"/>
        <path d="M884 415 c-7 -30 1 -55 18 -55 9 0 9 3 0 12 -7 7 -12 21 -12 31 0 16
2 17 15 7 22 -19 25 -8 3 12 -17 17 -18 17 -24 -7z"/>
        <path d="M1817 418 c5 -10 84 -10 100 0 6 4 -15 7 -47 7 -32 0 -56 -3 -53 -7z"/>
        <path d="M1946 414 c-9 -8 -16 -20 -16 -26 0 -6 1 -9 3 -7 1 2 11 14 21 27 22
25 16 30 -8 6z"/>
        <path d="M2055 391 c5 -9 2 -18 -7 -25 -9 -7 -12 -18 -8 -30 5 -16 8 -15 20
13 10 26 11 34 0 44 -10 9 -11 9 -5 -2z"/>
    </g>
</svg>
